%TF.GenerationSoftware,KiCad,Pcbnew,10.0.1*%
%TF.CreationDate,2026-06-22T20:34:28-07:00*%
%TF.ProjectId,power_connector,706f7765-725f-4636-9f6e-6e6563746f72,rev?*%
%TF.SameCoordinates,Original*%
%TF.FileFunction,Copper,L1,Top*%
%TF.FilePolarity,Positive*%
%FSLAX46Y46*%
G04 Gerber Fmt 4.6, Leading zero omitted, Abs format (unit mm)*
G04 Created by KiCad (PCBNEW 10.0.1) date 2026-06-22 20:34:28*
%MOMM*%
%LPD*%
G01*
G04 APERTURE LIST*
G04 Aperture macros list*
%AMRoundRect*
0 Rectangle with rounded corners*
0 $1 Rounding radius*
0 $2 $3 $4 $5 $6 $7 $8 $9 X,Y pos of 4 corners*
0 Add a 4 corners polygon primitive as box body*
4,1,4,$2,$3,$4,$5,$6,$7,$8,$9,$2,$3,0*
0 Add four circle primitives for the rounded corners*
1,1,$1+$1,$2,$3*
1,1,$1+$1,$4,$5*
1,1,$1+$1,$6,$7*
1,1,$1+$1,$8,$9*
0 Add four rect primitives between the rounded corners*
20,1,$1+$1,$2,$3,$4,$5,0*
20,1,$1+$1,$4,$5,$6,$7,0*
20,1,$1+$1,$6,$7,$8,$9,0*
20,1,$1+$1,$8,$9,$2,$3,0*%
G04 Aperture macros list end*
%TA.AperFunction,ComponentPad*%
%ADD10RoundRect,0.250001X-1.099999X-1.099999X1.099999X-1.099999X1.099999X1.099999X-1.099999X1.099999X0*%
%TD*%
%TA.AperFunction,ComponentPad*%
%ADD11C,2.700000*%
%TD*%
G04 APERTURE END LIST*
D10*
%TO.P,J1,1,Pin_1_1*%
%TO.N,/12v*%
X141970000Y-98225000D03*
D11*
%TO.P,J1,2,Pin_2_2*%
X146970000Y-98225000D03*
%TO.P,J1,3,Pin_3_3*%
%TO.N,GND*%
X151970000Y-98225000D03*
%TO.P,J1,4,Pin_4_4*%
X156970000Y-98225000D03*
%TD*%
D10*
%TO.P,J2,1,Pin_1_1*%
%TO.N,/12v*%
X147000000Y-115000000D03*
D11*
%TO.P,J2,2,Pin_2_2*%
%TO.N,GND*%
X152000000Y-115000000D03*
%TD*%
%TA.AperFunction,Conductor*%
%TO.N,GND*%
G36*
X158443039Y-96519685D02*
G01*
X158488794Y-96572489D01*
X158500000Y-96624000D01*
X158500000Y-99971982D01*
X158487955Y-100025294D01*
X155000000Y-107350001D01*
X155000000Y-116376000D01*
X154980315Y-116443039D01*
X154927511Y-116488794D01*
X154876000Y-116500000D01*
X150624000Y-116500000D01*
X150556961Y-116480315D01*
X150511206Y-116427511D01*
X150500000Y-116376000D01*
X150500000Y-96624000D01*
X150519685Y-96556961D01*
X150572489Y-96511206D01*
X150624000Y-96500000D01*
X158376000Y-96500000D01*
X158443039Y-96519685D01*
G37*
%TD.AperFunction*%
%TD*%
%TA.AperFunction,Conductor*%
%TO.N,/12v*%
G36*
X148443039Y-96519685D02*
G01*
X148488794Y-96572489D01*
X148500000Y-96624000D01*
X148500000Y-116376000D01*
X148480315Y-116443039D01*
X148427511Y-116488794D01*
X148376000Y-116500000D01*
X144124000Y-116500000D01*
X144056961Y-116480315D01*
X144011206Y-116427511D01*
X144000000Y-116376000D01*
X144000000Y-107350001D01*
X140512045Y-100025294D01*
X140500000Y-99971982D01*
X140500000Y-96624000D01*
X140519685Y-96556961D01*
X140572489Y-96511206D01*
X140624000Y-96500000D01*
X148376000Y-96500000D01*
X148443039Y-96519685D01*
G37*
%TD.AperFunction*%
%TD*%
M02*
